<?xml version="1.0" encoding="utf-8"?>
<!-- Generator: Adobe Illustrator 16.0.4, SVG Export Plug-In . SVG Version: 6.00 Build 0)  -->
<!DOCTYPE svg PUBLIC "-//W3C//DTD SVG 1.1//EN" "http://www.w3.org/Graphics/SVG/1.1/DTD/svg11.dtd">
<svg version="1.1" id="Layer_1" xmlns="http://www.w3.org/2000/svg" xmlns:xlink="http://www.w3.org/1999/xlink" x="0px" y="0px"
	 width="325px" height="362px" viewBox="0 0 325 362" enable-background="new 0 0 325 362" xml:space="preserve">
<g>
	<path fill="#58585A" d="M68.766,0v27.207V72.55h49.938V27.207V0H68.766z M114.165,4.534v18.137H96.005V4.534H114.165z
		 M73.307,4.534h18.159v18.137H73.307V4.534z M114.165,68.017H73.307v-40.81h40.857V68.017z"/>
	<g>
		<g>
			<path fill="#58585A" d="M47.171,107.889v1.017h-6.551V95.837h1.098v12.051H47.171z"/>
			<path fill="#58585A" d="M49.588,102.242c0-1.038,0.066-1.936,0.2-2.693c0.133-0.758,0.347-1.443,0.639-2.055
				c0.601-1.237,1.719-1.855,3.356-1.855c1.864,0.013,3.089,0.884,3.675,2.613c0.347,0.998,0.521,2.172,0.521,3.522
				c0,1.35-0.067,2.424-0.2,3.222c-0.134,0.798-0.347,1.516-0.639,2.155c-0.613,1.303-1.731,1.956-3.356,1.956
				c-1.598,0-2.71-0.652-3.336-1.956C49.875,105.966,49.588,104.331,49.588,102.242z M56.799,102.402
				c0-0.719-0.017-1.297-0.05-1.736c-0.033-0.439-0.109-0.924-0.229-1.457c-0.12-0.532-0.283-0.971-0.49-1.317
				c-0.206-0.346-0.499-0.635-0.879-0.868c-0.379-0.232-0.836-0.349-1.368-0.349s-0.989,0.117-1.368,0.349
				c-0.38,0.233-0.672,0.522-0.879,0.868s-0.37,0.785-0.489,1.317c-0.187,0.825-0.279,1.739-0.279,2.743
				c0,1.005,0.036,1.816,0.109,2.435c0.073,0.618,0.21,1.227,0.409,1.825c0.413,1.237,1.245,1.855,2.497,1.855
				c1.278,0,2.117-0.625,2.517-1.875C56.646,105.128,56.813,103.865,56.799,102.402z"/>
			<path fill="#58585A" d="M59.577,102.242c0-1.038,0.066-1.936,0.2-2.693c0.132-0.758,0.346-1.443,0.639-2.055
				c0.6-1.237,1.719-1.855,3.355-1.855c1.864,0.013,3.09,0.884,3.676,2.613c0.346,0.998,0.52,2.172,0.52,3.522
				c0,1.35-0.067,2.424-0.2,3.222c-0.133,0.798-0.346,1.516-0.639,2.155c-0.613,1.303-1.731,1.956-3.356,1.956
				c-1.598,0-2.71-0.652-3.335-1.956C59.863,105.966,59.577,104.331,59.577,102.242z M66.788,102.402
				c0-0.719-0.017-1.297-0.05-1.736c-0.033-0.439-0.109-0.924-0.229-1.457c-0.12-0.532-0.283-0.971-0.489-1.317
				c-0.207-0.346-0.5-0.635-0.879-0.868c-0.38-0.232-0.836-0.349-1.369-0.349c-0.532,0-0.988,0.117-1.368,0.349
				c-0.379,0.233-0.672,0.522-0.879,0.868c-0.206,0.346-0.369,0.785-0.489,1.317c-0.187,0.825-0.279,1.739-0.279,2.743
				c0,1.005,0.036,1.816,0.109,2.435c0.073,0.618,0.21,1.227,0.41,1.825c0.412,1.237,1.244,1.855,2.496,1.855
				c1.279,0,2.118-0.625,2.517-1.875C66.634,105.128,66.801,103.865,66.788,102.402z"/>
			<path fill="#58585A" d="M70.183,108.906V95.837h1.099v6.166l1.938-0.2c1.132-1.649,2.111-3.338,2.938-5.068l0.419-0.898h1.219
				c-1.146,2.368-2.337,4.489-3.576,6.365c1.079,1.703,2.137,3.578,3.176,5.626l0.56,1.077h-1.278
				c-1.093-2.327-2.21-4.356-3.356-6.085l-2.037,0.2v5.885H70.183z"/>
			<path fill="#58585A" d="M89.08,108.906l3.756-13.068h1.917l3.616,13.068H97.19l-0.819-3.012h-5.293l-0.839,3.012H89.08z
				 M96.111,104.896l-2.157-8.06h-0.339l-2.258,8.06H96.111z"/>
			<path fill="#58585A" d="M104.082,103.539c-0.72,0.04-1.186,0.06-1.398,0.06h-1.638v5.307h-1.099V95.837h2.937
				c1.624,0,2.816,0.28,3.575,0.838s1.139,1.543,1.139,2.953c0,0.944-0.189,1.702-0.569,2.274s-0.988,1.038-1.827,1.396
				c0.905,1.716,1.73,3.585,2.477,5.606h-1.199C105.746,106.964,104.947,105.174,104.082,103.539z M102.843,96.835h-1.798v5.766
				h1.598c1.226,0,2.164-0.223,2.817-0.669c0.652-0.445,0.978-1.213,0.978-2.304c0-1.091-0.289-1.829-0.869-2.215
				C104.99,97.028,104.082,96.835,102.843,96.835z"/>
			<path fill="#58585A" d="M109.514,102.242c0-1.038,0.066-1.936,0.2-2.693c0.133-0.758,0.347-1.443,0.639-2.055
				c0.601-1.237,1.719-1.855,3.356-1.855c1.864,0.013,3.089,0.884,3.675,2.613c0.347,0.998,0.521,2.172,0.521,3.522
				c0,1.35-0.067,2.424-0.2,3.222c-0.134,0.798-0.346,1.516-0.639,2.155c-0.613,1.303-1.731,1.956-3.356,1.956
				c-1.598,0-2.71-0.652-3.336-1.956C109.801,105.966,109.514,104.331,109.514,102.242z M116.725,102.402
				c0-0.719-0.017-1.297-0.05-1.736c-0.033-0.439-0.108-0.924-0.229-1.457c-0.12-0.532-0.283-0.971-0.49-1.317
				c-0.206-0.346-0.499-0.635-0.879-0.868c-0.379-0.232-0.836-0.349-1.368-0.349s-0.989,0.117-1.368,0.349
				c-0.38,0.233-0.672,0.522-0.879,0.868s-0.37,0.785-0.489,1.317c-0.187,0.825-0.279,1.739-0.279,2.743
				c0,1.005,0.036,1.816,0.109,2.435c0.073,0.618,0.21,1.227,0.409,1.825c0.413,1.237,1.245,1.855,2.497,1.855
				c1.279,0,2.117-0.625,2.517-1.875C116.573,105.128,116.739,103.865,116.725,102.402z"/>
			<path fill="#58585A" d="M119.782,105.135v-9.298h1.099v9.158c0,2.048,0.939,3.072,2.816,3.072c0.945,0,1.651-0.282,2.118-0.848
				c0.466-0.564,0.699-1.307,0.699-2.224v-9.158h1.099v9.298c0,1.29-0.337,2.274-1.009,2.953c-0.673,0.678-1.655,1.018-2.946,1.018
				c-1.292,0-2.262-0.354-2.907-1.058S119.782,106.372,119.782,105.135z"/>
			<path fill="#58585A" d="M136.561,108.906v-2.055l-5.693-8.938h-0.06v10.993h-1.099V95.837h1.078l5.714,9.038h0.06v-9.038h1.1
				v13.068H136.561z"/>
			<path fill="#58585A" d="M139.877,108.906V95.837h2.677c0.984,0,1.794,0.097,2.426,0.29c0.634,0.193,1.17,0.536,1.608,1.028
				c0.44,0.492,0.756,1.16,0.949,2.005s0.29,1.915,0.29,3.212c0,1.296-0.107,2.374-0.32,3.231c-0.212,0.858-0.553,1.527-1.018,2.005
				c-0.467,0.479-1.013,0.815-1.639,1.008c-0.627,0.192-1.405,0.289-2.337,0.289H139.877z M144.902,107.47
				c0.565-0.293,0.998-0.841,1.298-1.646s0.449-1.956,0.449-3.452c0-1.497-0.146-2.647-0.439-3.452
				c-0.294-0.805-0.719-1.354-1.278-1.646s-1.353-0.439-2.377-0.439h-1.578v11.073h1.538
				C143.539,107.909,144.334,107.762,144.902,107.47z"/>
		</g>
	</g>
	<path fill="#58585A" d="M206.297,0v27.205V72.55h49.938V27.205V0H206.297z M251.696,4.534v18.137h-18.159V4.534H251.696z
		 M251.696,68.017h-40.857V27.205h40.857V68.017z"/>
	<g>
		<g>
			<path fill="#58585A" d="M181.668,109.359l3.755-13.068h1.918l3.614,13.068h-1.179l-0.819-3.013h-5.292l-0.839,3.013H181.668z
				 M188.699,105.349l-2.157-8.06h-0.34l-2.257,8.06H188.699z"/>
			<path fill="#58585A" d="M199.826,108.002l0.259,1.018c-1.172,0.345-2.224,0.519-3.156,0.519c-1.531,0-2.666-0.529-3.405-1.587
				c-0.739-1.057-1.108-2.763-1.108-5.117s0.359-4.066,1.079-5.137c0.72-1.071,1.87-1.606,3.454-1.606
				c0.974,0,1.986,0.206,3.037,0.618l-0.319,0.998c-0.958-0.399-1.865-0.598-2.718-0.598c-1.184,0-2.04,0.449-2.564,1.347
				c-0.527,0.898-0.79,2.344-0.79,4.339c0,1.995,0.278,3.445,0.839,4.349c0.56,0.905,1.398,1.357,2.516,1.357
				C197.695,108.501,198.653,108.335,199.826,108.002z"/>
			<path fill="#58585A" d="M209.813,108.002l0.26,1.018c-1.173,0.345-2.224,0.519-3.156,0.519c-1.531,0-2.667-0.529-3.406-1.587
				c-0.739-1.057-1.108-2.763-1.108-5.117s0.359-4.066,1.079-5.137c0.72-1.071,1.871-1.606,3.455-1.606
				c0.973,0,1.985,0.206,3.037,0.618l-0.32,0.998c-0.958-0.399-1.864-0.598-2.717-0.598c-1.185,0-2.041,0.449-2.565,1.347
				c-0.526,0.898-0.79,2.344-0.79,4.339c0,1.995,0.279,3.445,0.839,4.349c0.56,0.905,1.398,1.357,2.517,1.357
				C207.683,108.501,208.641,108.335,209.813,108.002z"/>
			<path fill="#58585A" d="M212.928,109.359V96.291h6.812v0.978h-5.711v4.948h5.173v0.978h-5.173v5.187h5.771v0.978H212.928z"/>
			<path fill="#58585A" d="M229.648,108.341v1.018h-6.551V96.291h1.099v12.05H229.648z"/>
			<path fill="#58585A" d="M232.904,109.359V96.291h6.812v0.978h-5.712v4.948h5.174v0.978h-5.174v5.187h5.772v0.978H232.904z"/>
			<path fill="#58585A" d="M246.607,103.992c-0.72,0.04-1.186,0.06-1.398,0.06h-1.637v5.307h-1.1V96.291h2.938
				c1.623,0,2.816,0.28,3.575,0.838c0.759,0.558,1.138,1.543,1.138,2.953c0,0.945-0.189,1.703-0.569,2.274
				c-0.379,0.572-0.987,1.038-1.826,1.396c0.905,1.716,1.73,3.585,2.476,5.606h-1.198
				C248.271,107.417,247.473,105.628,246.607,103.992z M245.369,97.289h-1.797v5.766h1.598c1.226,0,2.163-0.223,2.817-0.669
				c0.651-0.445,0.977-1.213,0.977-2.304c0-1.09-0.288-1.829-0.867-2.215C247.516,97.481,246.607,97.289,245.369,97.289z"/>
			<path fill="#58585A" d="M251.582,109.359l3.755-13.068h1.918l3.614,13.068h-1.178l-0.819-3.013h-5.292l-0.839,3.013H251.582z
				 M258.612,105.349l-2.157-8.06h-0.34l-2.257,8.06H258.612z"/>
			<path fill="#58585A" d="M262.188,97.309v-1.018h8.031v1.018h-3.477v12.051h-1.099V97.309H262.188z"/>
			<path fill="#58585A" d="M272.854,109.359V96.291h6.812v0.978h-5.712v4.948h5.173v0.978h-5.173v5.187h5.771v0.978H272.854z"/>
		</g>
	</g>
	<g>
		<path fill="#58585A" d="M49.938,199.145H0v-49.878h49.938V199.145z M4.54,194.61h40.858v-40.809H4.54V194.61z"/>
	</g>
	<g>
		<path fill="#58585A" d="M28.246,172.281v-7.145h3.539v18.138h-3.539v-8.107h-6.551v8.107h-3.541v-18.138h3.541v7.145H28.246z"/>
	</g>
	<g>
		<path fill="#58585A" d="M118.704,199.145H68.766v-49.878h49.938V199.145z M73.305,194.61h40.859v-40.809H73.305V194.61z"/>
	</g>
	<g>
		<path fill="#58585A" d="M86.279,165.136h4.12l3.18,6.303l3.467-6.303h4.144l-5.731,9.816v8.322h-3.541v-8.322L86.279,165.136z"/>
	</g>
	<g>
		<path fill="#58585A" d="M187.469,199.145h-49.938v-49.878h49.938V199.145z M142.072,194.61h40.858v-40.809h-40.858V194.61z"/>
	</g>
	<g>
		<path fill="#58585A" d="M160.491,183.274h-3.541v-18.138h4.815c3.807,0,6.287,1.516,6.287,5.629c0,3.85-2.096,5.726-5.805,5.726
			h-1.757V183.274z M160.491,173.555h0.722c2.095,0,3.228-0.456,3.228-2.815c0-2.332-1.349-2.669-3.323-2.669h-0.626V173.555z"/>
	</g>
	<g>
		<path fill="#58585A" d="M256.235,199.145h-49.938v-49.878h49.938V199.145z M210.836,194.61h40.859v-40.809h-40.859V194.61z"/>
	</g>
	<g>
		<path fill="#58585A" d="M230.111,168.215v3.994h5.634v3.08h-5.634v4.906h5.853v3.079h-9.395v-18.138h9.395v3.079H230.111z"/>
	</g>
	<g>
		<path fill="#58585A" d="M325,199.145h-49.938v-49.878H325V199.145z M279.603,194.61h40.857v-40.809h-40.857V194.61z"/>
	</g>
	<g>
		<path fill="#58585A" d="M306.173,183.274h-4.287l-4.408-7.314h-0.047v7.314h-3.542v-18.138h4.793c3.589,0,6.07,1.588,6.07,5.461
			c0,2.309-1.277,4.618-3.709,5.029L306.173,183.274z M297.431,173.485h0.456c1.952,0,3.325-0.579,3.325-2.792
			c0-2.237-1.422-2.669-3.301-2.669h-0.48V173.485z"/>
	</g>
	<g>
		<path fill="#58585A" d="M93.575,234.194v1.018h-6.552v-13.068h1.099v12.051H93.575z"/>
		<path fill="#58585A" d="M95.533,235.211l3.755-13.068h1.917l3.616,13.068h-1.179l-0.819-3.012H97.53l-0.839,3.012H95.533z
			 M102.564,231.202l-2.158-8.061h-0.339l-2.257,8.061H102.564z"/>
		<path fill="#58585A" d="M106.259,231.44v-9.297h1.099v9.158c0,2.049,0.938,3.072,2.816,3.072c0.945,0,1.651-0.283,2.117-0.85
			c0.467-0.564,0.7-1.305,0.7-2.223v-9.158h1.098v9.297c0,1.291-0.336,2.275-1.009,2.953s-1.654,1.018-2.946,1.018
			c-1.291,0-2.261-0.354-2.906-1.059C106.583,233.649,106.259,232.676,106.259,231.44z"/>
		<path fill="#58585A" d="M123.039,235.211v-2.055l-5.693-8.938h-0.06v10.992h-1.1v-13.068h1.079l5.714,9.037h0.06v-9.037h1.099
			v13.068H123.039z"/>
		<path fill="#58585A" d="M133.665,233.854l0.261,1.02c-1.173,0.344-2.225,0.518-3.156,0.518c-1.531,0-2.667-0.527-3.406-1.586
			s-1.108-2.764-1.108-5.119c0-2.354,0.359-4.064,1.078-5.137c0.72-1.07,1.871-1.605,3.456-1.605c0.973,0,1.984,0.207,3.036,0.619
			l-0.318,0.996c-0.959-0.398-1.865-0.598-2.718-0.598c-1.186,0-2.04,0.449-2.566,1.348c-0.526,0.896-0.789,2.344-0.789,4.338
			c0,1.996,0.279,3.445,0.839,4.35c0.559,0.904,1.397,1.355,2.517,1.355C131.535,234.352,132.494,234.188,133.665,233.854z"/>
		<path fill="#58585A" d="M136.222,235.211v-13.068h1.099v6.066h5.634v-6.066h1.098v13.068h-1.098v-5.986h-5.634v5.986H136.222z"/>
		<path fill="#58585A" d="M155.917,228.547c0-1.037,0.066-1.936,0.2-2.693c0.133-0.758,0.346-1.443,0.639-2.055
			c0.6-1.236,1.719-1.855,3.356-1.855c1.863,0.014,3.089,0.885,3.675,2.613c0.347,0.998,0.52,2.172,0.52,3.521
			s-0.066,2.424-0.199,3.223c-0.134,0.797-0.347,1.516-0.639,2.154c-0.614,1.305-1.731,1.955-3.356,1.955
			c-1.598,0-2.711-0.65-3.336-1.955C156.205,232.272,155.917,230.635,155.917,228.547z M163.128,228.708
			c0-0.719-0.017-1.297-0.05-1.736s-0.109-0.924-0.229-1.457c-0.12-0.531-0.282-0.971-0.489-1.316s-0.499-0.635-0.879-0.867
			c-0.379-0.232-0.836-0.35-1.368-0.35c-0.533,0-0.989,0.117-1.368,0.35c-0.38,0.232-0.673,0.521-0.879,0.867
			c-0.207,0.346-0.37,0.785-0.49,1.316c-0.186,0.824-0.278,1.74-0.278,2.744s0.036,1.814,0.108,2.434
			c0.073,0.619,0.21,1.227,0.41,1.826c0.412,1.236,1.244,1.855,2.497,1.855c1.278,0,2.117-0.625,2.517-1.875
			C162.975,231.434,163.142,230.17,163.128,228.708z"/>
		<path fill="#58585A" d="M166.445,235.211v-13.068h3.076c1.465,0,2.554,0.262,3.267,0.789c0.712,0.525,1.068,1.393,1.068,2.602
			c0,1.518-0.739,2.502-2.218,2.953c0.879,0.199,1.528,0.533,1.948,0.998c0.419,0.467,0.629,1.145,0.629,2.035
			c0,1.41-0.399,2.379-1.198,2.902c-0.799,0.527-2.024,0.789-3.676,0.789H166.445z M171.658,223.481
			c-0.572-0.24-1.284-0.359-2.137-0.359h-1.977v4.986h2.137c0.839,0,1.551-0.189,2.137-0.568s0.886-1.074,0.899-2.084
			C172.73,224.444,172.377,223.786,171.658,223.481z M173.057,231.52c0-1.621-1.105-2.434-3.316-2.434h-2.196v5.146h1.797
			c1.239,0,2.168-0.195,2.787-0.588C172.748,233.254,173.057,232.545,173.057,231.52z"/>
		<path fill="#58585A" d="M176.993,223.54v-0.998h6.172v9.119c0,1.275-0.43,2.164-1.289,2.662c-0.858,0.5-2.367,0.861-4.524,1.088
			l-0.14-1.037c1.851-0.199,3.122-0.475,3.816-0.828c0.691-0.352,1.038-0.98,1.038-1.885v-8.121H176.993z"/>
		<path fill="#58585A" d="M186.719,235.211v-13.068h6.812v0.979h-5.713v4.947h5.173v0.979h-5.173v5.186h5.772v0.979H186.719z"/>
		<path fill="#58585A" d="M203.579,233.854l0.261,1.02c-1.173,0.344-2.226,0.518-3.156,0.518c-1.531,0-2.667-0.527-3.406-1.586
			s-1.109-2.764-1.109-5.119c0-2.354,0.36-4.064,1.079-5.137c0.72-1.07,1.871-1.605,3.456-1.605c0.972,0,1.984,0.207,3.036,0.619
			l-0.319,0.996c-0.959-0.398-1.864-0.598-2.717-0.598c-1.186,0-2.041,0.449-2.566,1.348c-0.526,0.896-0.789,2.344-0.789,4.338
			c0,1.996,0.278,3.445,0.839,4.35c0.559,0.904,1.397,1.355,2.517,1.355C201.449,234.352,202.407,234.188,203.579,233.854z"/>
		<path fill="#58585A" d="M206.016,223.161v-1.018h8.03v1.018h-3.477v12.051h-1.099v-12.051H206.016z"/>
		<path fill="#58585A" d="M219.57,228.936c-1.192-0.285-2.065-0.703-2.617-1.256c-0.553-0.553-0.829-1.354-0.829-2.404
			s0.363-1.869,1.089-2.455c0.726-0.584,1.661-0.877,2.807-0.877s2.31,0.207,3.496,0.619l-0.28,1.016
			c-1.106-0.398-2.121-0.598-3.046-0.598c-0.927,0-1.636,0.195-2.128,0.588c-0.493,0.393-0.738,0.961-0.738,1.707
			c0,0.744,0.199,1.311,0.599,1.695c0.399,0.387,1.194,0.734,2.387,1.047c1.191,0.314,2.054,0.725,2.587,1.238
			c0.533,0.512,0.799,1.336,0.799,2.473c0,1.139-0.383,2.035-1.148,2.693s-1.755,0.988-2.966,0.988
			c-0.906,0-2.052-0.193-3.437-0.578l0.261-1.018c1.357,0.373,2.45,0.559,3.275,0.559s1.505-0.23,2.037-0.689
			c0.532-0.457,0.8-1.1,0.8-1.924s-0.194-1.432-0.579-1.816C221.549,229.557,220.76,229.223,219.57,228.936z"/>
	</g>
	<path fill="#58585A" d="M325,324.995H0v-49.877h325V324.995z M4.54,320.461H320.46v-40.809H4.54V320.461z"/>
	<g>
		<path fill="#58585A" d="M98.037,356.276H96.2v4.787h-1.1v-13.068h2.937c1.598,0,2.78,0.303,3.546,0.908s1.148,1.652,1.148,3.143
			c0,1.488-0.387,2.566-1.158,3.232C100.8,355.942,99.621,356.276,98.037,356.276z M98.037,348.993H96.2v6.285h1.837
			c1.226,0,2.121-0.248,2.687-0.738c0.565-0.494,0.85-1.318,0.85-2.475c0-1.158-0.28-1.959-0.84-2.404
			C100.174,349.215,99.275,348.993,98.037,348.993z"/>
		<path fill="#58585A" d="M104.049,361.063l3.755-13.068h1.918l3.615,13.068h-1.178l-0.819-3.014h-5.294l-0.839,3.014H104.049z
			 M111.081,357.053l-2.157-8.061h-0.34l-2.257,8.061H111.081z"/>
		<path fill="#58585A" d="M114.776,357.292v-9.297h1.099v9.158c0,2.049,0.939,3.072,2.816,3.072c0.945,0,1.651-0.283,2.118-0.848
			c0.466-0.566,0.699-1.309,0.699-2.225v-9.158h1.098v9.297c0,1.291-0.336,2.275-1.008,2.953c-0.674,0.68-1.655,1.018-2.947,1.018
			c-1.291,0-2.261-0.352-2.906-1.057S114.776,358.53,114.776,357.292z"/>
		<path fill="#58585A" d="M128.209,354.788c-1.191-0.285-2.064-0.705-2.616-1.256c-0.554-0.553-0.829-1.354-0.829-2.404
			s0.362-1.869,1.088-2.455c0.726-0.584,1.661-0.877,2.808-0.877c1.145,0,2.31,0.207,3.495,0.619l-0.279,1.016
			c-1.106-0.396-2.122-0.598-3.047-0.598c-0.926,0-1.635,0.197-2.128,0.588c-0.492,0.395-0.738,0.961-0.738,1.707
			c0,0.744,0.2,1.309,0.599,1.695c0.4,0.385,1.195,0.734,2.387,1.049c1.192,0.311,2.055,0.725,2.588,1.236
			c0.532,0.51,0.799,1.336,0.799,2.473c0,1.139-0.383,2.035-1.149,2.693c-0.766,0.66-1.754,0.988-2.966,0.988
			c-0.906,0-2.051-0.193-3.436-0.578l0.26-1.02c1.358,0.375,2.45,0.561,3.275,0.561c0.826,0,1.505-0.23,2.038-0.689
			c0.532-0.459,0.8-1.1,0.8-1.924s-0.194-1.43-0.58-1.816C130.19,355.411,129.401,355.075,128.209,354.788z"/>
		<path fill="#58585A" d="M135.31,361.063v-13.068h6.812v0.979h-5.713v4.947h5.173v0.977h-5.173v5.188h5.772v0.979H135.31z"/>
		<path fill="#58585A" d="M154.147,361.561l8.25-14.545l0.739,0.439L154.866,362L154.147,361.561z"/>
		<path fill="#58585A" d="M178.977,355.696c-0.72,0.039-1.186,0.059-1.398,0.059h-1.638v5.309h-1.1v-13.068h2.938
			c1.624,0,2.816,0.279,3.575,0.838s1.139,1.543,1.139,2.953c0,0.943-0.189,1.703-0.57,2.273c-0.379,0.574-0.987,1.037-1.826,1.398
			c0.905,1.713,1.73,3.584,2.477,5.605h-1.199C180.641,359.122,179.842,357.331,178.977,355.696z M177.739,348.993h-1.798v5.764
			h1.598c1.225,0,2.164-0.221,2.816-0.668c0.653-0.443,0.979-1.213,0.979-2.303c0-1.092-0.29-1.828-0.869-2.215
			C179.885,349.186,178.977,348.993,177.739,348.993z"/>
		<path fill="#58585A" d="M185.249,361.063v-13.068h6.812v0.979h-5.713v4.947h5.173v0.977h-5.173v5.188h5.771v0.979H185.249z"/>
		<path fill="#58585A" d="M198.124,354.788c-1.192-0.285-2.065-0.705-2.617-1.256c-0.553-0.553-0.829-1.354-0.829-2.404
			s0.363-1.869,1.089-2.455c0.726-0.584,1.661-0.877,2.807-0.877s2.31,0.207,3.496,0.619l-0.28,1.016
			c-1.105-0.396-2.121-0.598-3.046-0.598c-0.927,0-1.636,0.197-2.128,0.588c-0.493,0.395-0.738,0.961-0.738,1.707
			c0,0.744,0.199,1.309,0.599,1.695c0.399,0.385,1.194,0.734,2.387,1.049c1.191,0.311,2.054,0.725,2.588,1.236
			c0.532,0.51,0.799,1.336,0.799,2.473c0,1.139-0.384,2.035-1.149,2.693c-0.766,0.66-1.755,0.988-2.966,0.988
			c-0.906,0-2.052-0.193-3.437-0.578l0.261-1.02c1.357,0.375,2.45,0.561,3.275,0.561c0.826,0,1.505-0.23,2.037-0.689
			s0.8-1.1,0.8-1.924s-0.194-1.43-0.579-1.816C200.103,355.411,199.314,355.075,198.124,354.788z"/>
		<path fill="#58585A" d="M204.666,357.292v-9.297h1.098v9.158c0,2.049,0.939,3.072,2.817,3.072c0.944,0,1.65-0.283,2.117-0.848
			c0.466-0.566,0.699-1.309,0.699-2.225v-9.158h1.099v9.297c0,1.291-0.337,2.275-1.009,2.953c-0.673,0.68-1.655,1.018-2.946,1.018
			c-1.292,0-2.261-0.352-2.907-1.057C204.988,359.5,204.666,358.53,204.666,357.292z"/>
		<path fill="#58585A" d="M214.533,361.063v-13.068h1.059l2.816,7.322h0.3l2.816-7.322h1.059v13.068h-1.078v-10.137h-0.08
			l-2.098,5.408h-1.538l-2.097-5.428h-0.08v10.156H214.533z"/>
		<path fill="#58585A" d="M225.2,361.063v-13.068h6.812v0.979h-5.713v4.947h5.174v0.977h-5.174v5.188h5.772v0.979H225.2z"/>
	</g>
	<g>
		<path fill="#58585A" d="M139.645,294.389l-2.11,1.248c-0.396-0.686-0.77-1.129-1.127-1.338c-0.373-0.238-0.853-0.355-1.439-0.355
			c-0.722,0-1.321,0.203-1.797,0.611c-0.477,0.4-0.715,0.908-0.715,1.518c0,0.84,0.625,1.518,1.875,2.029l1.719,0.703
			c1.4,0.566,2.422,1.256,3.069,2.068c0.647,0.816,0.972,1.816,0.972,2.998c0,1.582-0.529,2.891-1.587,3.924
			c-1.062,1.043-2.384,1.562-3.96,1.562c-1.496,0-2.732-0.443-3.705-1.332c-0.961-0.889-1.56-2.131-1.798-3.74l2.634-0.578
			c0.119,1.012,0.327,1.709,0.625,2.096c0.535,0.744,1.316,1.115,2.345,1.115c0.811,0,1.483-0.271,2.02-0.816
			c0.535-0.539,0.804-1.227,0.804-2.059c0-0.334-0.046-0.639-0.141-0.918c-0.093-0.279-0.236-0.535-0.434-0.77
			c-0.198-0.236-0.452-0.451-0.766-0.656c-0.311-0.205-0.685-0.4-1.115-0.584l-1.664-0.693c-2.358-0.992-3.538-2.447-3.538-4.367
			c0-1.289,0.495-2.369,1.485-3.24c0.989-0.877,2.22-1.312,3.694-1.312C136.976,291.502,138.529,292.463,139.645,294.389z"/>
		<path fill="#58585A" d="M145.827,302.057v6.99h-2.6v-17.213h2.946c1.443,0,2.532,0.1,3.27,0.301
			c0.744,0.201,1.399,0.578,1.965,1.139c0.989,0.965,1.483,2.184,1.483,3.656c0,1.576-0.529,2.824-1.584,3.744
			c-1.058,0.922-2.481,1.383-4.275,1.383H145.827z M145.827,299.649h0.972c2.388,0,3.582-0.918,3.582-2.754
			c0-1.773-1.231-2.664-3.694-2.664h-0.859V299.649z"/>
		<path fill="#58585A" d="M164.431,304.866h-7.376l-1.921,4.182h-2.802l8.527-18.293l8.225,18.293h-2.846L164.431,304.866z
			 M163.371,302.426l-2.555-5.855l-2.68,5.855H163.371z"/>
		<path fill="#58585A" d="M183.171,292.756v3.07c-1.503-1.256-3.06-1.883-4.666-1.883c-1.772,0-3.263,0.635-4.475,1.902
			c-1.223,1.266-1.829,2.811-1.829,4.639c0,1.807,0.606,3.328,1.829,4.57c1.22,1.24,2.714,1.863,4.485,1.863
			c0.916,0,1.693-0.15,2.332-0.445c0.357-0.15,0.727-0.352,1.11-0.602c0.383-0.254,0.786-0.561,1.213-0.916v3.139
			c-1.491,0.844-3.054,1.264-4.689,1.264c-2.463,0-4.564-0.855-6.305-2.574c-1.735-1.732-2.601-3.822-2.601-6.266
			c0-2.191,0.727-4.146,2.175-5.861c1.786-2.104,4.099-3.154,6.931-3.154C180.232,291.502,181.727,291.92,183.171,292.756z"/>
		<path fill="#58585A" d="M195.959,294.278h-6.907v4.135h6.706v2.441h-6.706v5.754h6.907v2.439h-9.508v-17.213h9.508V294.278z"/>
	</g>
</g>
</svg>
