<?xml version="1.0" encoding="utf-8"?>
<!-- Generator: Adobe Illustrator 16.0.4, SVG Export Plug-In . SVG Version: 6.00 Build 0)  -->
<!DOCTYPE svg PUBLIC "-//W3C//DTD SVG 1.1//EN" "http://www.w3.org/Graphics/SVG/1.1/DTD/svg11.dtd">
<svg version="1.1" id="Layer_1" xmlns="http://www.w3.org/2000/svg" xmlns:xlink="http://www.w3.org/1999/xlink" x="0px" y="0px"
	 width="50px" height="50px" viewBox="0 0 50 50" enable-background="new 0 0 50 50" xml:space="preserve">
<g>
	<g>
		<path fill-rule="evenodd" clip-rule="evenodd" fill="#E1001A" d="M30.468,3.063c0,0.673,0.018,1.346-0.007,2.018
			c-0.016,0.379,0.079,0.544,0.488,0.532c1.536-0.053,3.07-0.079,4.607-0.116c0.252-0.006,0.507-0.033,0.76-0.016
			c0.437,0.031,0.772,0.39,0.792,0.808c0.019,0.437-0.257,0.818-0.707,0.875c-0.685,0.086-1.376,0.167-2.065,0.184
			c-1.086,0.025-2.175,0.006-3.262-0.016c-0.37-0.008-0.521,0.092-0.435,0.491c0.375,1.702,0.035,3.422,0.116,5.132
			c0.025,0.544,0.048,1.088,0.04,1.632c-0.017,1.1-0.067,2.197-0.083,3.297c-0.011,0.928-0.009,1.853,0.014,2.781
			c0.029,1.186,0.099,2.37,0.118,3.557c0.01,0.558-0.371,0.91-0.871,0.898c-0.499-0.012-0.793-0.329-0.823-0.892
			c-0.089-1.556-0.182-3.113-0.267-4.668c-0.014-0.241-0.025-0.489,0.01-0.728c0.241-1.692,0.249-3.387,0.164-5.095
			c-0.062-1.254,0.083-2.514,0.067-3.772c-0.01-0.74-0.14-1.479-0.249-2.215c-0.018-0.11-0.217-0.264-0.338-0.274
			c-1.141-0.083-2.283-0.151-3.424-0.19c-0.42-0.014-0.84,0.086-1.261,0.105c-0.5,0.021-0.871-0.258-0.947-0.675
			c-0.091-0.505,0.202-0.979,0.724-1.021c0.838-0.066,1.683-0.084,2.524-0.08c0.662,0.004,1.326,0.059,1.984,0.115
			c0.415,0.037,0.581-0.098,0.589-0.538c0.024-1.23,0.093-2.459,0.145-3.688c0.012-0.23,0.018-0.459,0.048-0.687
			c0.069-0.511,0.427-0.833,0.879-0.816c0.471,0.02,0.828,0.387,0.82,0.917c-0.01,0.714-0.061,1.429-0.093,2.145
			C30.507,3.063,30.488,3.063,30.468,3.063z"/>
		<path fill-rule="evenodd" clip-rule="evenodd" fill="#E1001A" d="M15.168,11.647c0.259,0,0.397,0.021,0.527-0.002
			c1.356-0.256,2.706-0.023,4.058,0.047c0.775,0.041,1.553,0.063,2.328,0.09c0.816,0.027,1.239,0.773,0.875,1.52
			c-0.276,0.571-0.513,1.163-0.779,1.738c-0.174,0.375-0.372,0.74-0.56,1.105c-0.324,0.632-0.643,1.268-0.978,1.892
			c-0.692,1.293-1.387,2.587-2.102,3.868c-0.463,0.836-0.963,1.65-1.451,2.47c-0.08,0.133-0.184,0.256-0.294,0.366
			c-0.334,0.333-0.811,0.354-1.152,0.066c-0.327-0.274-0.402-0.737-0.174-1.125c0.792-1.338,1.62-2.653,2.368-4.013
			c0.604-1.096,1.104-2.25,1.675-3.365c0.335-0.66,0.771-1.268,1.068-1.941c0.446-1.009,0.354-0.796-0.528-0.912
			c-1.987-0.262-3.975-0.108-5.962-0.041c-1.013,0.035-1.466-0.546-1.034-1.468c0.543-1.16,1.195-2.268,1.794-3.4
			c0.139-0.262,0.334-0.526,0.366-0.81c0.172-1.478,0.881-2.728,1.533-4.017c0.324-0.638,0.479-1.366,0.737-2.041
			c0.131-0.344,0.297-0.681,0.492-0.994c0.277-0.444,0.776-0.563,1.179-0.327c0.403,0.239,0.502,0.716,0.3,1.209
			c-0.257,0.63-0.469,1.277-0.715,1.914c-0.148,0.383-0.293,0.775-0.494,1.135c-0.618,1.113-1.082,2.262-1.39,3.522
			c-0.245,1.012-0.901,1.919-1.372,2.875C15.398,11.179,15.313,11.355,15.168,11.647z"/>
	</g>
	<g>
		<path fill="#E1001A" d="M6.85,33.736c-0.708-0.172-1.226-0.424-1.553-0.757c-0.329-0.333-0.492-0.815-0.492-1.448
			s0.215-1.126,0.646-1.479c0.431-0.352,0.986-0.529,1.666-0.529s1.372,0.126,2.075,0.373l-0.166,0.613
			c-0.656-0.24-1.26-0.36-1.809-0.36s-0.971,0.118-1.263,0.354c-0.293,0.237-0.438,0.579-0.438,1.028
			c0,0.448,0.118,0.79,0.355,1.021c0.237,0.233,0.71,0.443,1.417,0.631c0.708,0.189,1.219,0.438,1.536,0.746
			c0.316,0.308,0.475,0.805,0.475,1.49s-0.228,1.227-0.683,1.623c-0.454,0.396-1.041,0.596-1.761,0.596
			c-0.538,0-1.218-0.117-2.04-0.349l0.155-0.613c0.806,0.224,1.454,0.336,1.944,0.336s0.893-0.138,1.209-0.414
			c0.316-0.277,0.475-0.664,0.475-1.161c0-0.496-0.114-0.86-0.344-1.094C8.026,34.111,7.557,33.91,6.85,33.736z"/>
		<path fill="#E1001A" d="M10.663,30.256v-0.613h4.768v0.613h-2.064v7.261h-0.651v-7.261H10.663z"/>
		<path fill="#E1001A" d="M16.996,37.517v-7.874h4.044v0.589h-3.393v2.981h3.072v0.589h-3.072v3.126h3.429v0.589H16.996z"/>
		<path fill="#E1001A" d="M22.972,37.517v-7.874h4.057v0.613h-3.404v3.438h2.918v0.602h-2.918v3.222H22.972z"/>
		<path fill="#E1001A" d="M28.084,37.517l2.229-7.874h1.139l2.146,7.874h-0.7l-0.486-1.814H29.27l-0.498,1.814H28.084z
			 M32.258,35.101l-1.28-4.856h-0.202l-1.34,4.856H32.258z"/>
		<path fill="#E1001A" d="M38.485,37.517v-1.238l-3.38-5.386H35.07v6.624h-0.652v-7.874h0.64l3.393,5.446h0.035v-5.446h0.652v7.874
			H38.485z"/>
		<path fill="#E1001A" d="M40.216,33.502c0-0.625,0.038-1.166,0.117-1.623s0.207-0.87,0.381-1.238
			c0.354-0.746,1.019-1.119,1.991-1.119c1.108,0.009,1.834,0.533,2.184,1.575c0.204,0.602,0.307,1.31,0.307,2.122
			c0,0.814-0.038,1.461-0.117,1.942c-0.079,0.48-0.207,0.913-0.381,1.298c-0.362,0.786-1.026,1.179-1.992,1.179
			c-0.947,0-1.607-0.393-1.979-1.179C40.386,35.747,40.216,34.76,40.216,33.502z M44.498,33.598c0-0.433-0.01-0.781-0.029-1.046
			c-0.021-0.264-0.065-0.557-0.137-0.878c-0.071-0.32-0.168-0.585-0.292-0.793c-0.121-0.208-0.295-0.383-0.521-0.523
			c-0.227-0.14-0.496-0.21-0.813-0.21c-0.316,0-0.586,0.07-0.812,0.21c-0.224,0.141-0.397,0.315-0.521,0.523
			c-0.124,0.208-0.221,0.473-0.29,0.793c-0.111,0.497-0.166,1.048-0.166,1.654c0,0.604,0.021,1.094,0.064,1.466
			c0.044,0.373,0.125,0.739,0.243,1.1c0.245,0.746,0.739,1.118,1.481,1.118c0.759,0,1.259-0.376,1.494-1.13
			C44.407,35.242,44.505,34.48,44.498,33.598z"/>
	</g>
	<g>
		<path fill="#E1001A" d="M0,49.891v-7.874h0.628l1.673,4.412h0.177l1.673-4.412h0.628v7.874H4.138v-6.106H4.091l-1.245,3.258H1.933
			l-1.245-3.271H0.64v6.119H0z"/>
		<path fill="#E1001A" d="M4.895,49.891l2.229-7.874h1.139l2.146,7.874h-0.7l-0.486-1.814H6.082l-0.498,1.814H4.895z M9.069,47.475
			l-1.28-4.856H7.586l-1.34,4.856H9.069z"/>
		<path fill="#E1001A" d="M15.039,49.074l0.154,0.613C14.497,49.895,13.873,50,13.319,50c-0.909,0-1.583-0.319-2.021-0.956
			c-0.439-0.638-0.658-1.665-0.658-3.084s0.213-2.45,0.64-3.096c0.428-0.646,1.111-0.968,2.052-0.968
			c0.577,0,1.179,0.125,1.803,0.372l-0.189,0.602c-0.568-0.24-1.107-0.36-1.613-0.36c-0.703,0-1.211,0.271-1.523,0.812
			s-0.468,1.412-0.468,2.614s0.165,2.076,0.497,2.621s0.83,0.817,1.494,0.817C13.774,49.375,14.343,49.274,15.039,49.074z"/>
		<path fill="#E1001A" d="M20.301,49.074l0.154,0.613C19.759,49.895,19.135,50,18.582,50c-0.909,0-1.583-0.319-2.021-0.956
			c-0.439-0.638-0.658-1.665-0.658-3.084s0.213-2.45,0.64-3.096c0.428-0.646,1.111-0.968,2.052-0.968
			c0.577,0,1.179,0.125,1.803,0.372l-0.189,0.602c-0.568-0.24-1.107-0.36-1.613-0.36c-0.703,0-1.211,0.271-1.523,0.812
			s-0.469,1.412-0.469,2.614s0.166,2.076,0.498,2.621s0.83,0.817,1.494,0.817C19.037,49.375,19.606,49.274,20.301,49.074z"/>
		<path fill="#E1001A" d="M20.685,49.891l2.229-7.874h1.139l2.146,7.874H25.5l-0.486-1.814h-3.143l-0.498,1.814H20.685z
			 M24.859,47.475l-1.28-4.856h-0.202l-1.34,4.856H24.859z"/>
		<path fill="#E1001A" d="M28.865,46.658c-0.427,0.023-0.702,0.035-0.83,0.035h-0.973v3.198h-0.65v-7.874h1.743
			c0.963,0,1.671,0.168,2.121,0.505c0.451,0.337,0.678,0.93,0.678,1.779c0,0.569-0.114,1.026-0.338,1.371
			c-0.227,0.344-0.589,0.625-1.087,0.841c0.538,1.034,1.028,2.16,1.471,3.378h-0.71C29.853,48.721,29.38,47.643,28.865,46.658z
			 M28.129,42.619h-1.067v3.474h0.949c0.728,0,1.286-0.134,1.672-0.402c0.388-0.269,0.581-0.731,0.581-1.389
			s-0.172-1.102-0.516-1.334S28.865,42.619,28.129,42.619z"/>
		<path fill="#E1001A" d="M31.928,49.891v-7.874h4.043v0.589h-3.391v2.981h3.07v0.59h-3.07v3.125h3.428v0.589H31.928z"/>
		<path fill="#E1001A" d="M41.177,49.278v0.613h-3.892v-7.874h0.653v7.261H41.177z"/>
		<path fill="#E1001A" d="M45.953,49.278v0.613h-3.892v-7.874h0.652v7.261H45.953z"/>
		<path fill="#E1001A" d="M46.692,49.891v-0.601h1.342v-6.672h-1.342v-0.602H50v0.602h-1.316v6.672H50v0.601H46.692z"/>
	</g>
</g>
</svg>
