<?xml version="1.0" encoding="utf-8"?>
<!-- Generator: Adobe Illustrator 16.0.4, SVG Export Plug-In . SVG Version: 6.00 Build 0)  -->
<!DOCTYPE svg PUBLIC "-//W3C//DTD SVG 1.1//EN" "http://www.w3.org/Graphics/SVG/1.1/DTD/svg11.dtd">
<svg version="1.1" id="Layer_1" xmlns="http://www.w3.org/2000/svg" xmlns:xlink="http://www.w3.org/1999/xlink" x="0px" y="0px"
	 width="78px" height="16px" viewBox="0 0 78 16" enable-background="new 0 0 78 16" xml:space="preserve">
<g>
	<path fill="#E1001A" d="M15.783,0c-1.393,0-2.573,0.474-3.54,1.421c-0.966,0.947-1.451,2.104-1.451,3.469
		c0,1.367,0.484,2.523,1.451,3.469c0.967,0.947,2.147,1.421,3.54,1.421c1.396,0,2.575-0.474,3.541-1.421
		c0.968-0.945,1.452-2.102,1.452-3.469c0-1.365-0.483-2.521-1.452-3.469C18.358,0.474,17.178,0,15.783,0z M17.995,7.055
		c-0.601,0.587-1.337,0.88-2.212,0.88c-0.873,0-1.609-0.293-2.208-0.88c-0.6-0.589-0.901-1.308-0.901-2.165
		c0-0.867,0.296-1.588,0.894-2.171c0.594-0.585,1.332-0.874,2.215-0.874c0.875,0,1.611,0.293,2.212,0.88
		c0.599,0.589,0.898,1.31,0.898,2.165C18.893,5.748,18.594,6.466,17.995,7.055z"/>
	<path fill="#E1001A" d="M37.048,1.421C36.082,0.474,34.9,0,33.506,0c-1.395,0-2.575,0.474-3.542,1.421
		c-0.966,0.947-1.448,2.104-1.448,3.469c0,1.367,0.482,2.523,1.448,3.469c0.967,0.947,2.147,1.421,3.542,1.421
		c1.394,0,2.575-0.474,3.542-1.421c0.966-0.945,1.45-2.102,1.45-3.469C38.498,3.525,38.014,2.369,37.048,1.421z M35.717,7.055
		c-0.602,0.587-1.338,0.88-2.211,0.88c-0.874,0-1.61-0.293-2.209-0.88c-0.602-0.589-0.901-1.308-0.901-2.165
		c0-0.867,0.298-1.588,0.894-2.171c0.594-0.585,1.333-0.874,2.217-0.874c0.873,0,1.609,0.293,2.211,0.88
		c0.599,0.589,0.897,1.31,0.897,2.165C36.615,5.748,36.316,6.466,35.717,7.055z"/>
	<path fill="#E1001A" d="M44.714,0H40.31c-0.278,0-0.508,0.086-0.684,0.253c-0.176,0.169-0.265,0.392-0.265,0.661
		c0,0.276,0.089,0.499,0.265,0.67c0.175,0.174,0.405,0.261,0.684,0.261h1.228v6.991c0,0.276,0.086,0.495,0.264,0.663
		c0.177,0.169,0.405,0.254,0.684,0.254c0.282,0,0.505-0.085,0.676-0.254c0.172-0.168,0.258-0.387,0.258-0.663V1.845h1.296
		c0.282,0,0.507-0.087,0.688-0.261c0.174-0.171,0.262-0.394,0.262-0.67c0-0.27-0.088-0.492-0.262-0.661
		C45.221,0.086,44.997,0,44.714,0z"/>
	<path fill="#E1001A" d="M52.93,5.601c0.479-0.621,0.723-1.326,0.723-2.118c0-0.984-0.343-1.809-1.032-2.478
		C51.936,0.335,51.09,0,50.083,0c-0.999,0-1.845,0.335-2.529,1.005c-0.682,0.669-1.024,1.493-1.024,2.478v5.354
		c0,0.267,0.087,0.483,0.265,0.658c0.178,0.17,0.401,0.259,0.67,0.259c0.281,0,0.505-0.085,0.683-0.254
		c0.177-0.168,0.267-0.389,0.267-0.663V3.483c0-0.453,0.162-0.842,0.487-1.16s0.718-0.479,1.183-0.479
		c0.468,0,0.865,0.161,1.193,0.479c0.329,0.318,0.495,0.707,0.495,1.16c0,0.456-0.166,0.846-0.495,1.167
		c-0.328,0.324-0.726,0.485-1.193,0.485c-0.247,0-0.471,0.092-0.654,0.274S49.15,5.804,49.15,6.052v0.752
		c0,0.836,0.286,1.537,0.857,2.102c0.572,0.565,1.286,0.848,2.14,0.848c0.278,0,0.508-0.085,0.686-0.254
		c0.176-0.168,0.262-0.389,0.262-0.663c0-0.28-0.086-0.506-0.262-0.673c-0.178-0.171-0.411-0.255-0.705-0.255
		c-0.291,0-0.548-0.104-0.759-0.308c-0.218-0.203-0.325-0.452-0.337-0.744C51.815,6.637,52.447,6.221,52.93,5.601z"/>
	<path fill="#E1001A" d="M59.509,9.78c0.282,0,0.505-0.084,0.686-0.253c0.174-0.169,0.265-0.392,0.265-0.661
		c0-0.274-0.091-0.497-0.265-0.67c-0.181-0.173-0.403-0.261-0.686-0.261c-0.688,0-1.308-0.201-1.861-0.605
		c-0.554-0.407-0.926-0.933-1.122-1.578h2.983c0.282,0,0.505-0.087,0.686-0.26c0.174-0.172,0.265-0.398,0.265-0.669
		c0-0.272-0.091-0.492-0.265-0.663c-0.181-0.169-0.403-0.251-0.686-0.251h-2.941c0.215-0.62,0.589-1.118,1.131-1.498
		c0.536-0.378,1.144-0.565,1.811-0.565c0.282,0,0.505-0.087,0.686-0.261c0.174-0.171,0.265-0.394,0.265-0.67
		c0-0.27-0.091-0.492-0.265-0.661C60.014,0.086,59.792,0,59.509,0c-1.394,0-2.576,0.474-3.541,1.421S54.52,3.525,54.52,4.89
		c0,1.367,0.483,2.523,1.448,3.469C56.933,9.306,58.116,9.78,59.509,9.78z"/>
	<path fill="#E1001A" d="M72.365,10.916h-0.053c-0.319,0-0.585-0.109-0.803-0.322S71.18,10.12,71.18,9.807V2.95
		c0-0.827-0.285-1.526-0.863-2.096C69.74,0.286,69.029,0,68.183,0C67.438,0,66.79,0.24,66.23,0.711C65.665,0.24,65.012,0,64.28,0
		c-0.848,0-1.562,0.285-2.142,0.854c-0.581,0.569-0.871,1.269-0.871,2.096v5.887c0,0.274,0.087,0.493,0.267,0.663
		c0.174,0.167,0.401,0.254,0.682,0.254c0.279,0,0.503-0.087,0.677-0.254c0.169-0.17,0.257-0.389,0.257-0.663V2.95
		c0-0.309,0.111-0.569,0.324-0.784c0.222-0.213,0.488-0.322,0.807-0.322c0.306,0,0.568,0.111,0.793,0.328
		c0.222,0.218,0.335,0.477,0.335,0.778v5.887c0,0.274,0.088,0.493,0.259,0.663c0.17,0.167,0.396,0.254,0.675,0.254
		S66.85,9.667,67.027,9.5c0.178-0.17,0.262-0.389,0.262-0.663V2.28c0.228-0.289,0.522-0.437,0.895-0.437
		c0.306,0,0.57,0.111,0.787,0.328c0.22,0.218,0.329,0.477,0.329,0.778v6.857c0,0.828,0.29,1.53,0.871,2.096
		c0.581,0.571,1.296,0.855,2.142,0.855h0.053c0.282,0,0.507-0.085,0.684-0.254c0.176-0.168,0.266-0.385,0.266-0.661
		c0-0.272-0.09-0.497-0.266-0.669C72.872,11.001,72.647,10.916,72.365,10.916z"/>
	<path fill="#E1001A" d="M77.734,5.492C77.913,5.32,78,5.093,78,4.823c0-0.272-0.088-0.492-0.267-0.663
		c-0.178-0.169-0.405-0.251-0.683-0.251h-2.942c0.214-0.62,0.589-1.118,1.13-1.498c0.538-0.378,1.145-0.565,1.812-0.565
		c0.277,0,0.505-0.087,0.683-0.261C77.913,1.414,78,1.191,78,0.915c0-0.27-0.088-0.492-0.267-0.661C77.556,0.086,77.329,0,77.051,0
		c-1.394,0-2.576,0.474-3.541,1.421c-0.97,0.947-1.453,2.104-1.453,3.469c0,1.367,0.483,2.523,1.453,3.469
		c0.965,0.947,2.147,1.421,3.541,1.421c0.277,0,0.505-0.084,0.683-0.253C77.913,9.358,78,9.135,78,8.866
		c0-0.274-0.088-0.497-0.267-0.67c-0.178-0.173-0.405-0.261-0.683-0.261c-0.688,0-1.308-0.201-1.861-0.605
		c-0.553-0.407-0.927-0.933-1.122-1.578h2.983C77.329,5.751,77.556,5.665,77.734,5.492z"/>
	<path fill="#E1001A" d="M6.889,0C6.155,0,5.506,0.232,4.948,0.697C4.392,0.232,3.747,0,3.012,0C2.165,0,1.451,0.286,0.87,0.854
		C0.29,1.423,0,2.123,0,2.95v5.887C0,9.113,0.089,9.332,0.265,9.5c0.177,0.169,0.404,0.254,0.682,0.254
		c0.28,0,0.503-0.085,0.677-0.254c0.172-0.168,0.257-0.387,0.257-0.663V2.95c0-0.309,0.11-0.569,0.328-0.784
		c0.219-0.213,0.485-0.322,0.803-0.322c0.316,0,0.584,0.109,0.8,0.322C4.033,2.38,4.142,2.641,4.142,2.95v5.887
		c0,0.276,0.084,0.495,0.256,0.663c0.17,0.169,0.396,0.254,0.677,0.254c0.28,0,0.505-0.085,0.683-0.254
		c0.176-0.168,0.265-0.387,0.265-0.663V2.242c0.223-0.265,0.513-0.398,0.865-0.398c0.315,0,0.582,0.109,0.8,0.322
		C7.91,2.38,8.017,2.641,8.017,2.95v5.887c0,0.276,0.087,0.495,0.258,0.663C8.444,9.668,8.673,9.753,8.95,9.753
		c0.282,0,0.509-0.085,0.686-0.254C9.81,9.332,9.899,9.113,9.899,8.836V2.95c0-0.836-0.288-1.536-0.866-2.102
		C8.458,0.282,7.743,0,6.889,0z"/>
	<path fill="#E1001A" d="M24.638,0c-0.846,0-1.556,0.285-2.132,0.854C21.927,1.423,21.64,2.123,21.64,2.95v5.902
		c0,0.274,0.087,0.494,0.258,0.671c0.172,0.173,0.398,0.257,0.675,0.257c0.271,0,0.495-0.088,0.676-0.267
		c0.181-0.176,0.273-0.396,0.273-0.661V2.95c0-0.309,0.106-0.569,0.322-0.784c0.212-0.213,0.477-0.322,0.793-0.322
		c0.316,0,0.582,0.109,0.802,0.322c0.218,0.215,0.325,0.476,0.325,0.784v5.887c0,0.276,0.091,0.495,0.267,0.663
		c0.177,0.169,0.404,0.254,0.684,0.254c0.277,0,0.501-0.085,0.674-0.254c0.173-0.168,0.26-0.387,0.26-0.663V2.95
		c0-0.836-0.291-1.536-0.865-2.102C26.209,0.282,25.493,0,24.638,0z"/>
	<path fill="#E1001A" d="M35.558,14.041c0.214-0.289,0.319-0.617,0.319-0.979c0-0.478-0.167-0.875-0.494-1.196
		c-0.335-0.324-0.742-0.483-1.229-0.483c-0.487,0-0.894,0.159-1.222,0.483c-0.328,0.321-0.493,0.719-0.493,1.196v2.396
		c0,0.151,0.053,0.276,0.154,0.378c0.106,0.104,0.233,0.153,0.389,0.153c0.159,0,0.29-0.048,0.392-0.151
		c0.106-0.098,0.159-0.227,0.159-0.38v-2.396c0-0.171,0.06-0.314,0.179-0.432c0.121-0.121,0.267-0.181,0.442-0.181
		c0.176,0,0.325,0.06,0.446,0.181c0.123,0.117,0.185,0.261,0.185,0.432s-0.062,0.316-0.185,0.438c-0.122,0.12-0.271,0.18-0.446,0.18
		c-0.144,0-0.272,0.054-0.38,0.159c-0.108,0.107-0.162,0.23-0.162,0.374v0.334c0,0.414,0.137,0.757,0.418,1.031
		c0.279,0.276,0.627,0.412,1.048,0.412c0.157,0,0.287-0.048,0.393-0.151c0.103-0.098,0.155-0.227,0.155-0.38
		c0-0.159-0.053-0.289-0.155-0.389c-0.106-0.098-0.237-0.151-0.4-0.151c-0.186,0-0.307-0.085-0.357-0.261
		C35.064,14.54,35.345,14.334,35.558,14.041z"/>
	<path fill="#E1001A" d="M39.463,12.633c0.206-0.123,0.428-0.185,0.667-0.185c0.159,0,0.289-0.05,0.396-0.151
		c0.104-0.102,0.154-0.228,0.154-0.385c0-0.153-0.051-0.282-0.154-0.382c-0.106-0.1-0.236-0.149-0.396-0.149
		c-0.659,0-1.217,0.223-1.674,0.667c-0.457,0.449-0.683,0.995-0.683,1.644c0,0.646,0.226,1.192,0.683,1.64
		C38.913,15.778,39.472,16,40.13,16c0.159,0,0.289-0.05,0.396-0.147c0.104-0.1,0.154-0.229,0.154-0.384s-0.051-0.284-0.154-0.386
		c-0.106-0.104-0.236-0.151-0.396-0.151c-0.249,0-0.477-0.068-0.687-0.199c-0.211-0.13-0.366-0.311-0.467-0.535h1.154
		c0.159,0,0.289-0.05,0.396-0.151c0.104-0.102,0.154-0.23,0.154-0.386c0-0.153-0.051-0.283-0.154-0.381
		c-0.106-0.1-0.236-0.149-0.396-0.149h-1.127C39.106,12.921,39.261,12.758,39.463,12.633z"/>
	<path fill="#E1001A" d="M44.911,12.449c0.156,0,0.289-0.05,0.396-0.151c0.104-0.102,0.156-0.228,0.156-0.385
		c0-0.153-0.053-0.282-0.156-0.382c-0.106-0.1-0.239-0.149-0.396-0.149c-0.66,0-1.218,0.223-1.676,0.667
		c-0.452,0.449-0.68,0.995-0.68,1.644c0,0.646,0.228,1.192,0.68,1.64C43.693,15.778,44.25,16,44.911,16
		c0.156,0,0.289-0.05,0.396-0.147c0.104-0.1,0.156-0.229,0.156-0.384s-0.053-0.284-0.156-0.386
		c-0.106-0.104-0.239-0.151-0.396-0.151c-0.356,0-0.658-0.118-0.902-0.358c-0.241-0.235-0.362-0.533-0.362-0.882
		c0-0.351,0.121-0.646,0.362-0.884C44.252,12.568,44.554,12.449,44.911,12.449z"/>
	<path fill="#E1001A" d="M49.71,11.381c-0.66,0-1.22,0.223-1.678,0.665c-0.454,0.451-0.682,0.997-0.682,1.646
		c0,0.646,0.228,1.194,0.682,1.64C48.491,15.778,49.05,16,49.71,16c0.659,0,1.218-0.223,1.672-0.669
		c0.46-0.445,0.685-0.993,0.685-1.64c0-0.648-0.225-1.194-0.685-1.646C50.928,11.604,50.37,11.381,49.71,11.381z M50.611,14.574
		c-0.245,0.24-0.546,0.358-0.9,0.358c-0.36,0-0.66-0.118-0.9-0.358c-0.247-0.235-0.368-0.535-0.368-0.882
		c0-0.354,0.121-0.65,0.362-0.886c0.242-0.238,0.544-0.355,0.906-0.355c0.354,0,0.655,0.119,0.9,0.357
		c0.244,0.237,0.366,0.533,0.366,0.884C50.977,14.039,50.855,14.338,50.611,14.574z"/>
	<path fill="#E1001A" d="M57.079,14.041c0.209-0.289,0.316-0.617,0.316-0.979c0-0.478-0.166-0.875-0.495-1.196
		c-0.33-0.324-0.739-0.483-1.226-0.483c-0.487,0-0.895,0.159-1.225,0.483c-0.327,0.321-0.494,0.719-0.494,1.196v2.396
		c0,0.151,0.054,0.276,0.157,0.378c0.104,0.104,0.234,0.153,0.388,0.153c0.156,0,0.289-0.048,0.392-0.151
		c0.105-0.098,0.16-0.227,0.16-0.38v-2.396c0-0.171,0.059-0.314,0.178-0.432c0.122-0.121,0.269-0.181,0.444-0.181
		c0.175,0,0.321,0.06,0.445,0.181c0.123,0.117,0.184,0.261,0.184,0.432s-0.061,0.316-0.184,0.438c-0.124,0.12-0.271,0.18-0.445,0.18
		c-0.148,0-0.273,0.054-0.383,0.159c-0.108,0.107-0.159,0.23-0.159,0.374v0.334c0,0.414,0.14,0.757,0.415,1.031
		c0.28,0.276,0.629,0.412,1.052,0.412c0.154,0,0.287-0.048,0.39-0.151c0.105-0.098,0.156-0.227,0.156-0.38
		c0-0.159-0.051-0.289-0.156-0.389c-0.103-0.098-0.237-0.151-0.399-0.151c-0.187,0-0.308-0.085-0.356-0.261
		C56.585,14.54,56.867,14.334,57.079,14.041z"/>
	<path fill="#E1001A" d="M60.764,11.381h-0.93c-0.143,0-0.271,0.054-0.38,0.159c-0.107,0.104-0.16,0.231-0.16,0.372v3.545
		c0,0.153,0.049,0.282,0.148,0.38c0.105,0.104,0.233,0.151,0.392,0.151c0.21,0,0.364-0.074,0.464-0.231
		C60.396,15.918,60.553,16,60.764,16c0.668,0,1.228-0.223,1.678-0.665c0.456-0.445,0.682-0.993,0.682-1.644
		c0-0.652-0.226-1.2-0.682-1.646C61.992,11.602,61.432,11.381,60.764,11.381z M61.665,14.574c-0.242,0.24-0.542,0.358-0.9,0.358
		c-0.086,0-0.213,0-0.382-0.006v-2.476h0.382c0.36,0,0.666,0.117,0.908,0.355c0.239,0.235,0.358,0.531,0.358,0.886
		C62.031,14.039,61.912,14.338,61.665,14.574z"/>
	<path fill="#E1001A" d="M67.166,11.381c-0.376,0-0.695,0.126-0.957,0.378c-0.261,0.253-0.39,0.565-0.39,0.941l0.006,1.975
		c0,0.163-0.082,0.249-0.243,0.249c-0.16,0-0.295,0.052-0.399,0.15c-0.104,0.102-0.156,0.231-0.156,0.389
		c0,0.155,0.051,0.28,0.154,0.382c0.101,0.102,0.231,0.149,0.39,0.149c0.374,0,0.693-0.125,0.954-0.382
		c0.262-0.253,0.393-0.569,0.393-0.938l-0.006-1.975c0-0.143,0.073-0.223,0.218-0.244c0.207-0.028,0.353-0.082,0.431-0.159
		c0.105-0.102,0.158-0.229,0.158-0.385c0-0.153-0.053-0.282-0.158-0.382C67.458,11.431,67.326,11.381,67.166,11.381z"/>
</g>
</svg>
