<?xml version="1.0" encoding="utf-8"?>
<!-- Generator: Adobe Illustrator 16.0.4, SVG Export Plug-In . SVG Version: 6.00 Build 0)  -->
<!DOCTYPE svg PUBLIC "-//W3C//DTD SVG 1.1//EN" "http://www.w3.org/Graphics/SVG/1.1/DTD/svg11.dtd">
<svg version="1.1" id="Layer_1" xmlns="http://www.w3.org/2000/svg" xmlns:xlink="http://www.w3.org/1999/xlink" x="0px" y="0px"
	 width="400px" height="108px" viewBox="0 0 400 108" enable-background="new 0 0 400 108" xml:space="preserve">
<g>
	<g>
		<path fill="#F6F5F6" d="M0.649,0l17.305,17.968V1.09h2.875v23.788L3.523,6.908v17.031H0.649V0z"/>
		<path fill="#F6F5F6" d="M27.698,23.939h-2.874V1.09h2.874V23.939z"/>
		<path fill="#F6F5F6" d="M35.278,18.21l-2.63,5.729H29.56L40.567,0.12l11.007,23.819h-3.088l-2.63-5.729H35.278z M40.567,6.364
			l-4.097,9.243h8.194L40.567,6.364z"/>
		<path fill="#F6F5F6" d="M74.496,12.422v0.911c0,6.272-4.464,11.09-10.915,11.09s-11.649-5.515-11.649-11.848
			c0-6.576,5.32-11.97,11.955-11.97c3.577,0,7.123,1.607,9.385,4.425l-2.017,1.908c-1.651-2.242-4.433-3.727-7.246-3.727
			c-5.167,0-9.203,4.151-9.203,9.272c0,4.786,3.975,9.332,8.958,9.332c3.577,0,7.429-3.06,7.551-6.788h-5.961v-2.606H74.496z"/>
		<path fill="#F6F5F6" d="M80.602,18.21l-2.629,5.729h-3.089L85.891,0.12l11.008,23.819h-3.089L91.18,18.21H80.602z M85.891,6.364
			l-4.097,9.243h8.195L85.891,6.364z"/>
		<path fill="#F6F5F6" d="M113.155,23.939h-3.485l-6.788-9.666h-1.191v9.666h-2.874V1.09h3.484c2.049,0,4.25,0.032,6.084,1.062
			c1.927,1.12,3.027,3.271,3.027,5.453c0,3.272-2.201,5.999-5.534,6.392L113.155,23.939z M101.69,11.91h0.916
			c2.936,0,6.116-0.547,6.116-4.182c0-3.575-3.424-4.091-6.268-4.091h-0.764V11.91z"/>
		<path fill="#F6F5F6" d="M118.683,18.21l-2.63,5.729h-3.088L123.972,0.12l11.007,23.819h-3.088l-2.629-5.729H118.683z
			 M123.972,6.364l-4.097,9.243h8.195L123.972,6.364z"/>
	</g>
	<g>
		<path fill="#F6F5F6" d="M28.973,76.201h-7.013L8.302,56.75h-2.4v19.451H0.119V30.226h7.014c4.122,0,8.552,0.062,12.243,2.134
			c3.875,2.256,6.091,6.586,6.091,10.976c0,6.586-4.431,12.073-11.136,12.866L28.973,76.201z M5.902,51.993h1.846
			c5.907,0,12.305-1.097,12.305-8.414c0-7.194-6.89-8.23-12.612-8.23H5.902V51.993z"/>
		<path fill="#F6F5F6" d="M78.867,53.213c0,13.657-10.889,23.962-24.301,23.962c-13.413,0-24.302-10.305-24.302-23.962
			c0-13.168,11.012-23.964,24.302-23.964C67.854,29.25,78.867,40.045,78.867,53.213z M73.083,53.213
			c0-10.123-7.629-18.598-18.518-18.598c-10.889,0-18.52,8.475-18.52,18.598c0,10.487,8.491,18.597,18.52,18.597
			C64.594,71.81,73.083,63.701,73.083,53.213z"/>
		<path fill="#F6F5F6" d="M126.729,53.03v1.831c0,12.621-8.983,22.314-21.964,22.314s-23.44-11.097-23.44-23.842
			c0-13.229,10.705-24.084,24.055-24.084c7.198,0,14.335,3.232,18.889,8.904l-4.061,3.841c-3.323-4.512-8.921-7.499-14.582-7.499
			c-10.397,0-18.518,8.352-18.518,18.656c0,9.634,7.998,18.78,18.026,18.78c7.199,0,14.95-6.158,15.196-13.657h-11.998V53.03
			H126.729z"/>
		<path fill="#F6F5F6" d="M132.449,30.226h24.916v5.244h-19.134v12.866h18.58v5.241h-18.58v17.38h19.134v5.243h-24.916V30.226z"/>
		<path fill="#F6F5F6" d="M193.354,76.201h-7.013L172.683,56.75h-2.399v19.451H164.5V30.226h7.015c4.121,0,8.551,0.062,12.24,2.134
			c3.877,2.256,6.091,6.586,6.091,10.976c0,6.586-4.429,12.073-11.135,12.866L193.354,76.201z M170.284,51.993h1.846
			c5.907,0,12.304-1.097,12.304-8.414c0-7.194-6.89-8.23-12.611-8.23h-1.539V51.993z"/>
		<path fill="#F6F5F6" d="M229.773,63.153l13.105-33.903l13.102,33.903l12.984-32.927h6.274L255.98,78.03l-13.102-33.718
			L229.773,78.03l-19.255-47.804h6.274L229.773,63.153z"/>
		<path fill="#F6F5F6" d="M279.298,64.677l-5.291,11.523h-6.215l22.149-47.926l22.148,47.926h-6.215l-5.289-11.523H279.298z
			 M289.941,40.835l-8.242,18.599h16.485L289.941,40.835z"/>
		<path fill="#F6F5F6" d="M323.531,76.201h-5.783V35.47h-11.012v-5.244h27.807v5.244h-11.012V76.201z"/>
		<path fill="#F6F5F6" d="M339.097,30.226h24.915v5.244h-19.134v12.866h18.58v5.241h-18.58v17.38h19.134v5.243h-24.915V30.226z"/>
		<path fill="#F6F5F6" d="M400,76.201h-7.015L379.328,56.75h-2.398v19.451h-5.781V30.226h7.011c4.124,0,8.552,0.062,12.243,2.134
			c3.877,2.256,6.093,6.586,6.093,10.976c0,6.586-4.431,12.073-11.137,12.866L400,76.201z M376.93,51.993h1.848
			c5.902,0,12.302-1.097,12.302-8.414c0-7.194-6.888-8.23-12.611-8.23h-1.538V51.993z"/>
	</g>
	<g>
		<path fill="#F6F5F6" d="M5.53,101.552l-2.544,5.539H0l10.646-23.036l10.646,23.036h-2.987l-2.543-5.539H5.53z M10.646,90.093
			l-3.963,8.939h7.925L10.646,90.093z"/>
		<path fill="#F6F5F6" d="M38.531,84.994v14.039c0,4.249-0.828,8.528-6.033,8.528c-1.301,0-2.396-0.322-3.49-0.967l1.39-2.346
			c0.621,0.47,1.419,0.733,2.218,0.733c3.194,0,3.134-3.693,3.134-5.949V84.994H38.531z"/>
		<path fill="#F6F5F6" d="M64.198,96.042c0,6.566-5.234,11.519-11.681,11.519c-6.447,0-11.681-4.952-11.681-11.519
			c0-6.33,5.293-11.519,11.681-11.519C58.905,84.524,64.198,89.712,64.198,96.042z M61.419,96.042c0-4.865-3.667-8.938-8.901-8.938
			c-5.235,0-8.901,4.073-8.901,8.938c0,5.042,4.081,8.939,8.901,8.939C57.337,104.982,61.419,101.084,61.419,96.042z"/>
		<path fill="#F6F5F6" d="M69.284,84.994v13.043c0,3.604,1.094,6.945,5.381,6.945c4.288,0,5.383-3.341,5.383-6.945V84.994h2.779
			v13.98c0,4.864-3.046,8.587-8.162,8.587c-5.116,0-8.162-3.723-8.162-8.587v-13.98H69.284z"/>
		<path fill="#F6F5F6" d="M100.54,107.091h-3.372l-6.564-9.35H89.45v9.35h-2.78V84.994h3.371c1.981,0,4.111,0.03,5.885,1.026
			c1.863,1.084,2.927,3.164,2.927,5.274c0,3.166-2.129,5.804-5.353,6.185L100.54,107.091z M89.45,95.457h0.887
			c2.839,0,5.914-0.528,5.914-4.045c0-3.457-3.312-3.956-6.062-3.956H89.45V95.457z"/>
		<path fill="#F6F5F6" d="M102.461,83.939l16.738,17.379V84.994h2.779V108l-16.737-17.38v16.471h-2.78V83.939z"/>
		<path fill="#F6F5F6" d="M125.939,84.994h11.977v2.521h-9.197v6.185h8.931v2.52h-8.931v8.353h9.197v2.521h-11.977V84.994z"/>
		<path fill="#F6F5F6" d="M139.039,84.994h3.194l5.471,9.438l5.471-9.438h3.193l-7.274,12.485v9.612h-2.78v-9.612L139.039,84.994z"
			/>
		<path fill="#F6F5F6" d="M169.526,107.091h-2.779V84.994h2.779V107.091z"/>
		<path fill="#F6F5F6" d="M173.43,83.939l16.737,17.379V84.994h2.78V108l-16.738-17.38v16.471h-2.779V83.939z"/>
		<path fill="#F6F5F6" d="M202.912,107.091h-2.781V87.514h-5.293v-2.521h13.366v2.521h-5.292V107.091z"/>
		<path fill="#F6F5F6" d="M232.186,96.042c0,6.566-5.233,11.519-11.68,11.519s-11.681-4.952-11.681-11.519
			c0-6.33,5.293-11.519,11.681-11.519S232.186,89.712,232.186,96.042z M229.408,96.042c0-4.865-3.668-8.938-8.902-8.938
			s-8.902,4.073-8.902,8.938c0,5.042,4.083,8.939,8.902,8.939S229.408,101.084,229.408,96.042z"/>
		<path fill="#F6F5F6" d="M256.581,93.903v-8.909h2.78v22.098h-2.78V96.482h-10.617v10.609h-2.778V84.994h2.778v8.909H256.581z"/>
		<path fill="#F6F5F6" d="M261.074,84.994h3.194l5.471,9.438l5.471-9.438h3.194l-7.275,12.485v9.612h-2.78v-9.612L261.074,84.994z"
			/>
		<path fill="#F6F5F6" d="M283.104,107.091h-2.778V84.994h3.193c6.86,0,8.989,2.344,8.989,6.389c0,4.66-3.578,6.448-7.807,6.448
			h-1.598V107.091z M283.104,95.369h0.888c2.839,0,5.914-0.528,5.914-4.045c0-3.457-3.312-3.868-6.061-3.868h-0.741V95.369z"/>
		<path fill="#F6F5F6" d="M294.963,84.994h11.978v2.521h-9.197v6.185h8.931v2.52h-8.931v8.353h9.197v2.521h-11.978V84.994z"/>
		<path fill="#F6F5F6" d="M324.237,107.091h-3.37l-6.565-9.35h-1.154v9.35h-2.778V84.994h3.371c1.98,0,4.109,0.03,5.885,1.026
			c1.863,1.084,2.927,3.164,2.927,5.274c0,3.166-2.129,5.804-5.351,6.185L324.237,107.091z M313.147,95.457h0.888
			c2.839,0,5.915-0.528,5.915-4.045c0-3.457-3.312-3.956-6.062-3.956h-0.741V95.457z"/>
		<path fill="#F6F5F6" d="M329.206,104.571h6.772v2.521h-9.553V84.994h2.78V104.571z"/>
		<path fill="#F6F5F6" d="M340.976,101.552l-2.544,5.539h-2.987l10.646-23.036l10.646,23.036h-2.985l-2.544-5.539H340.976z
			 M346.091,90.093l-3.964,8.939h7.927L346.091,90.093z"/>
		<path fill="#F6F5F6" d="M358.332,83.939l16.738,17.379V84.994h2.78V108l-16.738-17.38v16.471h-2.78V83.939z"/>
		<path fill="#F6F5F6" d="M381.575,84.994h4.612c6.831,0,12.509,3.575,12.509,10.932c0,7.533-5.559,11.166-12.597,11.166h-4.524
			V84.994z M384.354,104.571h0.978c5.678,0,10.585-2.11,10.585-8.528c0-6.447-4.907-8.528-10.585-8.528h-0.978V104.571z"/>
	</g>
</g>
</svg>
