<?xml version="1.0" encoding="utf-8"?>
<!-- Generator: Adobe Illustrator 16.0.4, SVG Export Plug-In . SVG Version: 6.00 Build 0)  -->
<!DOCTYPE svg PUBLIC "-//W3C//DTD SVG 1.1//EN" "http://www.w3.org/Graphics/SVG/1.1/DTD/svg11.dtd">
<svg version="1.1" id="Layer_1" xmlns="http://www.w3.org/2000/svg" xmlns:xlink="http://www.w3.org/1999/xlink" x="0px" y="0px"
	 width="86px" height="12px" viewBox="0 0 86 12" enable-background="new 0 0 86 12" xml:space="preserve">
<path fill="#E1001A" d="M11.841,12V0.154h-1.24v10.853L0,0v12h1.24V2.939L9.969,12H11.841z M16.804,0.154h-1.24V12h1.24V0.154z
	 M28.513,8.492h-5.852l2.927-5.898L28.513,8.492z M31.569,12l-5.98-12l-5.965,12h1.299l1.179-2.378h6.974L30.264,12H31.569z
	 M43.902,2.417l0.699-0.959C43.342,0.537,41.717,0,39.894,0c-4.089,0-7.272,3.016-7.272,6.973c0,2.012,0.829,3.774,2.177,5.027h2.01
	c-1.762-0.998-2.906-2.836-2.906-5.027c0-3.305,2.564-5.842,5.992-5.842C41.539,1.131,42.881,1.63,43.902,2.417 M44.783,12V6.186
	h-4.828l-0.541,1.15h4.128v4.652c-0.011,0.004-0.026,0.006-0.038,0.012H44.783z M56.097,8.492h-5.852l2.927-5.898L56.097,8.492z
	 M59.154,12L53.172,0l-5.964,12h1.299l1.179-2.378h6.974L57.849,12H59.154z M69.097,3.898c0,1.673-1.102,2.634-3.366,2.634h-2.486
	V1.266h2.486C67.996,1.266,69.097,2.208,69.097,3.898 M70.398,3.898c0-2.344-1.7-3.744-4.628-3.744h-3.766V12h1.24V7.625h1.845
	L68.843,12h1.518l-3.828-4.396C68.978,7.375,70.398,5.994,70.398,3.898 M82.945,8.492h-5.853l2.926-5.898L82.945,8.492z M86,12
	L80.018,0l-5.964,12h1.301l1.176-2.378h6.974L84.695,12H86z"/>
</svg>
